<svg width="50" height="51" viewBox="0 0 50 51" fill="none" xmlns="http://www.w3.org/2000/svg">
<path opacity="0.1" d="M46.0428 29.0214C46.0428 34.5967 43.8281 39.9435 39.8858 43.8858C35.9435 47.8281 30.5966 50.0429 25.0214 50.0429C19.4462 50.0429 14.0993 47.8281 10.157 43.8858C6.21474 39.9435 3.99999 34.5967 3.99999 29.0214C3.99999 23.4462 6.21474 18.0993 10.157 14.157C14.0993 10.2148 19.4462 8 25.0214 8C30.5966 8 35.9435 10.2148 39.8858 14.157C43.8281 18.0993 46.0428 23.4462 46.0428 29.0214Z" fill="#79EE8D"/>
<path fill-rule="evenodd" clip-rule="evenodd" d="M50.0072 11.1642C50.0072 4.99838 45.009 0 38.8429 0C35.3633 0 32.2555 1.59193 30.208 4.0872C28.5348 3.70463 26.7928 3.50254 25.0036 3.50254C23.2144 3.50254 21.4724 3.70463 19.7992 4.0872C17.7517 1.59193 14.6439 0 11.1642 0C4.99838 0 0 4.99838 0 11.1642C0 14.1661 1.18482 16.8913 3.11234 18.8977C2.23136 21.352 1.75138 23.9973 1.75138 26.7548C1.75138 39.5671 12.114 49.9592 24.9151 50.0067L25.0036 50.0071L25.0922 50.0067C37.8932 49.9592 48.2557 39.5671 48.2557 26.7548C48.2557 23.9973 47.7757 21.352 46.895 18.8977C48.8225 16.8913 50.0072 14.1661 50.0072 11.1642ZM25.0036 7.96684C35.3799 7.96684 43.7915 16.3785 43.7915 26.7548C43.7915 32.4921 41.2197 37.6288 37.1661 41.0749C37.5429 39.8721 37.7457 38.5921 37.7457 37.2649C37.7457 30.2278 32.0408 24.5231 25.0036 24.5231C17.9664 24.5231 12.2616 30.2278 12.2616 37.2649C12.2616 38.5924 12.4646 39.8721 12.841 41.0753C8.78742 37.6288 6.21567 32.4922 6.21567 26.7548C6.21567 16.3785 14.6273 7.96684 25.0036 7.96684ZM27.6311 33.2807C28.6147 33.2807 29.4824 33.9246 29.7674 34.866C30.0525 35.8074 29.6877 36.8246 28.8692 37.3703L26.2418 39.1217C25.492 39.6217 24.5152 39.6217 23.7654 39.1217L21.138 37.3703C20.3195 36.8246 19.9547 35.8074 20.2398 34.866C20.5248 33.9246 21.3925 33.2807 22.3761 33.2807H27.6311ZM29.7767 20.6259C29.7767 18.9144 31.1617 17.5162 32.8847 17.5162C34.6019 17.5162 35.994 18.9083 35.994 20.6256C35.994 22.3428 34.6019 23.7349 32.8847 23.7349C31.1642 23.7349 29.7767 22.3399 29.7767 20.6259ZM17.1205 17.5162C15.3976 17.5162 14.0125 18.9144 14.0125 20.6259C14.0125 22.3399 15.4 23.7349 17.1205 23.7349C18.8377 23.7349 20.2298 22.3428 20.2298 20.6256C20.2298 18.9083 18.8377 17.5162 17.1205 17.5162Z" fill="#0C098C"/>
</svg>
