<svg width="35" height="22" viewBox="0 0 35 22" fill="none" xmlns="http://www.w3.org/2000/svg">
<path d="M23.3936 20H11.3857C6.08021 20 1.7793 15.8196 1.7793 10.6629C1.7793 5.50609 6.08021 1.32571 11.3857 1.32571H23.3936C28.699 1.32571 33 5.50609 33 10.6629C33 15.8196 28.699 20 23.3936 20Z" stroke="black" stroke-opacity="0.5" stroke-width="2.14" stroke-linecap="round" stroke-linejoin="round"/>
<path d="M6.58252 10.6629C6.58252 11.276 6.70676 11.883 6.94814 12.4494C7.18952 13.0159 7.54332 13.5305 7.98934 13.964C8.43536 14.3976 8.96486 14.7414 9.5476 14.9761C10.1304 15.2107 10.7549 15.3314 11.3857 15.3314C12.0165 15.3314 12.6411 15.2107 13.2238 14.9761C13.8066 14.7414 14.3361 14.3976 14.7821 13.964C15.2281 13.5305 15.5819 13.0159 15.8233 12.4494C16.0647 11.883 16.1889 11.276 16.1889 10.6629C16.1889 9.42468 15.6828 8.23721 14.7821 7.36169C13.8813 6.48616 12.6596 5.99429 11.3857 5.99429C10.1118 5.99429 8.89011 6.48616 7.98934 7.36169C7.08857 8.23721 6.58252 9.42468 6.58252 10.6629Z" stroke="black" stroke-opacity="0.5" stroke-width="2.14" stroke-linecap="round" stroke-linejoin="round"/>
</svg>
