<svg width="48" height="48" viewBox="0 0 48 48" fill="none" xmlns="http://www.w3.org/2000/svg">
<path d="M38.2857 31.1427V20.4286C38.2857 16.4354 33.0507 9.71428 24 9.71428C14.9493 9.71428 9.71429 16.4354 9.71429 20.4286V31.1427C9.71429 39.0325 16.1102 45.4286 24 45.4286C31.8898 45.4286 38.2857 39.0325 38.2857 31.1427Z" fill="#FDDC5C"/>
<path fill-rule="evenodd" clip-rule="evenodd" d="M11.5083 0.339279C5.33983 0.339279 0.339296 5.33982 0.339296 11.5083C0.339296 16.2573 3.30322 20.3141 7.48215 21.9297V31.1427C7.48215 31.2776 7.48376 31.4122 7.48697 31.5464L1.57319 34.5032C0.470564 35.0546 0.023632 36.3953 0.57495 37.4978C1.12626 38.6007 2.46705 39.0475 3.56969 38.4961L8.25576 36.1532C8.56755 37.1336 8.96837 38.0746 9.44872 38.9661L6.35022 42.0646C5.47851 42.9364 5.47851 44.3496 6.35022 45.2214C7.22194 46.0932 8.63522 46.0932 9.50694 45.2214L12.1148 42.6136C15.1187 45.7253 19.3333 47.6607 24 47.6607C28.6667 47.6607 32.8814 45.7253 35.8854 42.6136L38.4932 45.2214C39.3647 46.0932 40.7782 46.0932 41.6497 45.2214C42.5214 44.3496 42.5214 42.9364 41.6497 42.0646L38.5514 38.9661C39.0318 38.0746 39.4325 37.1336 39.7443 36.1532L44.4304 38.4961C45.5329 39.0475 46.8736 38.6007 47.425 37.4978C47.9764 36.3953 47.5293 35.0546 46.4268 34.5032L40.5129 31.5464C40.5161 31.4122 40.5179 31.2776 40.5179 31.1427V21.9297C44.6968 20.3141 47.6607 16.2574 47.6607 11.5083C47.6607 5.33982 42.66 0.339279 36.4918 0.339279C31.7038 0.339279 27.6195 3.35196 26.0312 7.58506C25.3733 7.51753 24.6961 7.48214 24 7.48214C23.3039 7.48214 22.6267 7.51753 21.9689 7.58506C20.3805 3.35196 16.2962 0.339279 11.5083 0.339279ZM24 43.1964C19.9043 43.1964 16.2857 41.1536 14.1075 38.0311C13.016 36.4668 12.2863 34.6313 12.0393 32.646C12.0366 32.6204 12.0335 32.5949 12.03 32.5694C11.9748 32.1015 11.9464 31.6254 11.9464 31.1427V20.4286C11.9464 19.2694 12.8094 17.1507 14.9501 15.2388C17.0043 13.404 20.0535 11.9464 24 11.9464C27.9465 11.9464 30.9957 13.404 33.0499 15.2388C35.1907 17.1507 36.0536 19.2694 36.0536 20.4286V31.1427C36.0536 31.6255 36.0254 32.1016 35.97 32.5696C35.9664 32.595 35.9632 32.6205 35.9607 32.6459C35.7147 34.6254 34.9882 36.4561 33.9022 38.0175L33.8914 38.0328C31.713 41.1543 28.095 43.1964 24 43.1964ZM20.875 24.8929C20.875 23.167 19.4759 21.7679 17.75 21.7679C16.0241 21.7679 14.625 23.167 14.625 24.8929C14.625 26.6187 16.0241 28.0179 17.75 28.0179C19.4759 28.0179 20.875 26.6187 20.875 24.8929ZM30.25 28.0179C28.5241 28.0179 27.125 26.6187 27.125 24.8929C27.125 23.167 28.5241 21.7679 30.25 21.7679C31.9759 21.7679 33.375 23.167 33.375 24.8929C33.375 26.6187 31.9759 28.0179 30.25 28.0179ZM21.3214 32.4821C20.3378 32.4821 19.4701 33.126 19.1851 34.0674C18.9 35.0089 19.2648 36.0261 20.0833 36.5714L22.7618 38.3571C23.5116 38.8571 24.4884 38.8571 25.2382 38.3571L27.9168 36.5714C28.7352 36.0261 29.1 35.0089 28.8149 34.0674C28.5299 33.126 27.6622 32.4821 26.6786 32.4821H21.3214Z" fill="#0C098C"/>
</svg>
