<svg width="50" height="50" viewBox="0 0 50 50" fill="none" xmlns="http://www.w3.org/2000/svg">
<path d="M41.9811 2.35849V28.7736L46.1528 31.5548C47.083 32.1748 47.6415 33.2185 47.6415 34.3363C47.6415 35.5596 46.9732 36.6853 45.8992 37.2709L27.7315 47.1808C27.1772 47.483 26.5559 47.6415 25.9246 47.6415H24.0754C23.4441 47.6415 22.8228 47.483 22.2685 47.1808L4.10068 37.2709C3.02672 36.6853 2.35849 35.5596 2.35849 34.3363C2.35849 33.2185 2.91709 32.1748 3.84709 31.5548L8.01887 28.7736V2.35849H9.90566C16.1579 2.35849 21.2264 7.42698 21.2264 13.6792V13.796C21.8445 13.7189 22.4742 13.6792 23.1132 13.6792H26.8868C27.5258 13.6792 28.1555 13.7189 28.7736 13.796V13.6792C28.7736 7.42698 33.8421 2.35849 40.0943 2.35849H41.9811Z" fill="#7AF1FF"/>
<path fill-rule="evenodd" clip-rule="evenodd" d="M41.9811 0C43.2838 0 44.3396 1.05593 44.3396 2.35849V27.5114L47.4611 29.5924C49.0472 30.6498 50 32.43 50 34.3363C50 36.4226 48.8604 38.3426 47.0287 39.3415L28.8609 49.2513C27.9602 49.7426 26.9506 50 25.9246 50H24.0754C23.0494 50 22.0398 49.7426 21.1391 49.2513L2.97128 39.3415C1.13965 38.3426 0 36.4226 0 34.3363C0 32.43 0.952717 30.6498 2.53887 29.5924L5.66038 27.5114V2.35849C5.66038 1.05593 6.7163 0 8.01887 0H9.90566C16.6562 0 22.2647 4.88985 23.3823 11.3208H26.6177C27.7353 4.88985 33.3438 0 40.0943 0H41.9811ZM21.7801 16.1065C22.2175 16.0611 22.6623 16.0377 23.1132 16.0377H26.8868C27.3377 16.0377 27.7825 16.0611 28.2199 16.1065C28.2952 16.1246 28.372 16.1392 28.4502 16.15C32.5616 16.7191 36.9408 19.3286 39.6226 21.5461V28.7736C39.6226 29.5622 40.0166 30.2986 40.6728 30.736L44.8445 33.5171C45.1185 33.6997 45.283 34.0071 45.283 34.3363C45.283 34.6965 45.0864 35.028 44.7698 35.2005L26.6022 45.1102C26.3943 45.2238 26.1613 45.283 25.9246 45.283H24.0754C23.8387 45.283 23.6057 45.2238 23.3978 45.1102L5.23004 35.2005C4.91377 35.028 4.71698 34.6965 4.71698 34.3363C4.71698 34.0071 4.88147 33.6997 5.15536 33.5171L9.32713 30.736C9.98324 30.2986 10.3774 29.5622 10.3774 28.7736V21.5461C13.0591 19.3286 17.4384 16.7191 21.5498 16.15C21.628 16.1392 21.7048 16.1246 21.7801 16.1065ZM31.6038 31.1321C33.4274 31.1321 34.9057 29.6538 34.9057 27.8302C34.9057 26.0066 33.4274 24.5283 31.6038 24.5283C29.7802 24.5283 28.3019 26.0066 28.3019 27.8302C28.3019 29.6538 29.7802 31.1321 31.6038 31.1321ZM18.3962 31.1321C20.2198 31.1321 21.6981 29.6538 21.6981 27.8302C21.6981 26.0066 20.2198 24.5283 18.3962 24.5283C16.5726 24.5283 15.0943 26.0066 15.0943 27.8302C15.0943 29.6538 16.5726 31.1321 18.3962 31.1321ZM27.8302 33.9623C28.8695 33.9623 29.7863 34.6426 30.0875 35.6373C30.3886 36.6321 30.0032 37.7068 29.1385 38.283L26.3083 40.1698C25.516 40.6981 24.484 40.6981 23.6917 40.1698L20.8615 38.283C19.9968 37.7068 19.6114 36.6321 19.9125 35.6373C20.2137 34.6426 21.1305 33.9623 22.1698 33.9623H27.8302Z" fill="#0C098C"/>
</svg>
