<svg width="48" height="49" viewBox="0 0 48 49" fill="none" xmlns="http://www.w3.org/2000/svg">
<path fill-rule="evenodd" clip-rule="evenodd" d="M23.9999 9.26785C28.6891 9.26785 32.9952 10.7912 36.0547 13.3486C40.2039 16.717 42.9925 21.6429 43.9104 24.0122C44.0365 24.338 44.0893 24.665 44.0893 24.9741V32.0357C44.0893 41.1582 36.694 48.5536 27.5714 48.5536H20.4286C11.306 48.5536 3.91074 41.1582 3.91074 32.0357V24.9741C3.91074 24.6649 3.96359 24.3381 4.08966 24.0125C5.00559 21.6467 7.78056 16.719 11.9323 13.3486C14.9932 10.7902 19.3125 9.26785 23.9999 9.26785Z" fill="#FF7972"/>
<path fill-rule="evenodd" clip-rule="evenodd" d="M42.7872 0.542215C41.9936 0.178604 41.0607 0.310868 40.3997 0.880776L29.7446 10.0659C27.9436 9.54656 26.0054 9.26789 23.9999 9.26789C21.9944 9.26789 20.0563 9.54656 18.2554 10.0658L7.60029 0.880776C6.93915 0.310868 6.00651 0.178604 5.21301 0.542215C4.41951 0.905829 3.91072 1.6986 3.91072 2.57146V24.8929C3.91072 25.971 4.68133 26.8951 5.74194 27.0887C6.80254 27.2824 7.84997 26.6903 8.23097 25.6817C8.66501 24.5328 9.89347 22.1774 11.754 19.8735C13.0953 18.2126 14.6621 16.7066 16.3699 15.6754C17.0246 15.2942 17.7396 14.9583 18.5055 14.6776L18.5278 14.6694C20.1542 14.0764 22.0086 13.7322 23.9999 13.7322C26.9421 13.7322 29.5855 14.4836 31.6359 15.6789C33.3415 16.71 34.9064 18.2145 36.2461 19.8735C38.1064 22.1774 39.335 24.5328 39.7689 25.6817C40.15 26.6903 41.1975 27.2824 42.2582 27.0887C43.3186 26.8951 44.0893 25.971 44.0893 24.8929V2.57146C44.0893 1.6986 43.5804 0.905829 42.7872 0.542215ZM32.091 43.2139C33.2338 42.7514 34.5351 43.3028 34.9975 44.4454C35.4604 45.5882 34.9089 46.8896 33.7661 47.3521C31.8502 48.1275 29.7578 48.5536 27.5714 48.5536H20.4286C18.2422 48.5536 16.1498 48.1275 14.2339 47.3521C13.0912 46.8896 12.5398 45.5882 13.0024 44.4454C13.4649 43.3028 14.7663 42.7514 15.909 43.2139C17.3018 43.7778 18.826 44.0893 20.4286 44.0893H27.5714C29.174 44.0893 30.6983 43.7778 32.091 43.2139ZM45.4286 29.8036C46.6614 29.8036 47.6607 30.803 47.6607 32.0357C47.6607 33.2685 46.6614 34.2679 45.4286 34.2679H35.6072C34.3744 34.2679 33.375 33.2685 33.375 32.0357C33.375 30.803 34.3744 29.8036 35.6072 29.8036H45.4286ZM33.229 37.6139C32.6113 38.6807 32.9755 40.0464 34.0423 40.6639L42.5247 45.5746C43.5914 46.1921 44.9568 45.8282 45.5746 44.7614C46.1922 43.6943 45.8282 42.3289 44.7611 41.7111L36.2789 36.8004C35.2122 36.1828 33.8467 36.5468 33.229 37.6139ZM12.3929 29.8036C13.6257 29.8036 14.625 30.803 14.625 32.0357C14.625 33.2685 13.6257 34.2679 12.3929 34.2679H2.57144C1.33866 34.2679 0.339294 33.2685 0.339294 32.0357C0.339294 30.803 1.33866 29.8036 2.57144 29.8036H12.3929ZM14.771 37.6139C14.1534 36.5468 12.7878 36.1828 11.7209 36.8004L3.23876 41.7111C2.17189 42.3289 1.80773 43.6943 2.42539 44.7614C3.04308 45.8282 4.40865 46.1921 5.47554 45.5746L13.9577 40.6639C15.0245 40.0464 15.3887 38.6807 14.771 37.6139ZM26.6786 30.6965C27.6622 30.6965 28.5299 31.3403 28.8149 32.2817C29.1 33.2232 28.7352 34.2402 27.9168 34.7857L25.2382 36.5714C24.4884 37.0714 23.5116 37.0714 22.7618 36.5714L20.0833 34.7857C19.2648 34.2402 18.9 33.2232 19.1851 32.2817C19.4701 31.3403 20.3378 30.6965 21.3214 30.6965H26.6786ZM34.2684 24C34.2684 25.7259 32.8693 27.125 31.1434 27.125C29.4175 27.125 28.0184 25.7259 28.0184 24C28.0184 22.2741 29.4175 20.875 31.1434 20.875C32.8693 20.875 34.2684 22.2741 34.2684 24ZM19.9816 24C19.9816 25.7259 18.5825 27.125 16.8566 27.125C15.1307 27.125 13.7316 25.7259 13.7316 24C13.7316 22.2741 15.1307 20.875 16.8566 20.875C18.5825 20.875 19.9816 22.2741 19.9816 24Z" fill="#0C098C"/>
</svg>
