<svg width="25" height="25" viewBox="0 0 25 25" fill="none" xmlns="http://www.w3.org/2000/svg">
<g clip-path="url(#clip0_640_3273)">
<path fill-rule="evenodd" clip-rule="evenodd" d="M17.8571 1.11607H7.14285C4.18419 1.11607 1.78571 3.51455 1.78571 6.47321C1.78571 7.45943 2.58521 8.25893 3.57142 8.25893H21.4286C22.4148 8.25893 23.2143 7.45943 23.2143 6.47321C23.2143 3.51455 20.8159 1.11607 17.8571 1.11607ZM23.2143 19.1964C23.2143 21.7852 21.1155 23.8839 18.5268 23.8839H6.47321C3.88437 23.8839 1.78571 21.7852 1.78571 19.1964C1.78571 18.3336 2.48526 17.6339 3.34821 17.6339H6.24999L10.7143 20.3125L12.5 17.6339H21.6518C22.5146 17.6339 23.2143 18.3336 23.2143 19.1964Z" fill="#FF7972"/>
<path fill-rule="evenodd" clip-rule="evenodd" d="M0.669634 6.47321C0.669634 2.89816 3.56779 0 7.14285 0H17.8571C21.4321 0 24.3303 2.89816 24.3303 6.47321C24.3303 8.07582 23.0312 9.375 21.4286 9.375H3.57142C1.96881 9.375 0.669634 8.07582 0.669634 6.47321ZM7.14285 2.23214C4.80056 2.23214 2.90178 4.13093 2.90178 6.47321C2.90178 6.84305 3.20158 7.14286 3.57142 7.14286H21.4286C21.7984 7.14286 22.0982 6.84305 22.0982 6.47321C22.0982 4.13093 20.1995 2.23214 17.8571 2.23214H7.14285ZM0.223206 12.9464C0.223206 12.0835 0.922761 11.3839 1.78571 11.3839H23.2143C24.0771 11.3839 24.7768 12.0835 24.7768 12.9464C24.7768 13.8094 24.0771 14.5089 23.2143 14.5089H1.78571C0.922761 14.5089 0.223206 13.8094 0.223206 12.9464ZM6.47321 25C3.26797 25 0.669634 22.4016 0.669634 19.1964C0.669634 17.7171 1.86887 16.5179 3.34821 16.5179H6.24999C6.45228 16.5179 6.65076 16.5728 6.8242 16.6769L10.376 18.808L11.5714 17.0148C11.7783 16.7044 12.1268 16.5179 12.5 16.5179H21.6518C23.1311 16.5179 24.3303 17.7171 24.3303 19.1964C24.3303 22.4016 21.732 25 18.5268 25H6.47321ZM2.90178 19.1964C2.90178 21.1689 4.50076 22.7679 6.47321 22.7679H18.5268C20.4993 22.7679 22.0982 21.1689 22.0982 19.1964C22.0982 18.9498 21.8984 18.75 21.6518 18.75H13.0973L11.6429 20.9316C11.3124 21.4273 10.6509 21.5761 10.1401 21.2695L5.94085 18.75H3.34821C3.10165 18.75 2.90178 18.9498 2.90178 19.1964Z" fill="#0C098C"/>
</g>
<defs>
<clipPath id="clip0_640_3273">
<rect width="25" height="25" fill="white"/>
</clipPath>
</defs>
</svg>
