<svg width="15" height="15" viewBox="0 0 15 15" fill="none" xmlns="http://www.w3.org/2000/svg">
<g clip-path="url(#clip0_24_4063)">
<path fill-rule="evenodd" clip-rule="evenodd" d="M7.90218 3.21499C7.90218 4.62182 6.76199 5.76229 5.35549 5.76229C3.94899 5.76229 2.8088 4.62182 2.8088 3.21499C2.8088 1.80815 3.94899 0.66769 5.35549 0.66769C6.76199 0.66769 7.90218 1.80815 7.90218 3.21499ZM8.38195 9.37514H8.30354C7.268 9.37514 6.42854 10.2146 6.42854 11.2501C6.42854 11.8873 6.74635 12.4502 7.23211 12.789V13.2572H0.670131C0.670131 10.4487 2.7678 8.17187 5.35539 8.17187C6.50916 8.17187 7.56552 8.62453 8.38195 9.37514Z" fill="#79EE8D"/>
<path fill-rule="evenodd" clip-rule="evenodd" d="M5.35549 1.33734C4.31898 1.33734 3.47844 2.17784 3.47844 3.21499C3.47844 4.25215 4.31898 5.09265 5.35549 5.09265C6.392 5.09265 7.23254 4.25215 7.23254 3.21499C7.23254 2.17784 6.392 1.33734 5.35549 1.33734ZM2.13916 3.21499C2.13916 1.43847 3.57901 -0.00195312 5.35549 -0.00195312C7.13197 -0.00195312 8.57182 1.43847 8.57182 3.21499C8.57182 4.99151 7.13197 6.43194 5.35549 6.43194C3.57901 6.43194 2.13916 4.99151 2.13916 3.21499ZM12.0535 8.30371C12.0535 7.85991 11.6938 7.50014 11.25 7.50014C10.8062 7.50014 10.4464 7.85991 10.4464 8.30371V10.4466H8.30354C7.85974 10.4466 7.49996 10.8064 7.49996 11.2501C7.49996 11.6939 7.85974 12.0537 8.30354 12.0537H10.4464V14.1966C10.4464 14.6404 10.8062 15.0001 11.25 15.0001C11.6938 15.0001 12.0535 14.6404 12.0535 14.1966V12.0537H14.1964C14.6402 12.0537 15 11.6939 15 11.2501C15 10.8064 14.6402 10.4466 14.1964 10.4466H12.0535V8.30371ZM5.35539 8.84151C3.38685 8.84151 1.68125 10.4293 1.38517 12.5876H6.83032C7.20016 12.5876 7.49996 12.8874 7.49996 13.2572C7.49996 13.6271 7.20016 13.9269 6.83032 13.9269H0.670131C0.300297 13.9269 0.000488281 13.6271 0.000488281 13.2572C0.000488281 10.1316 2.34736 7.50223 5.35539 7.50223C6.42663 7.50223 7.42285 7.84068 8.25589 8.4183C8.55981 8.62903 8.63535 9.04624 8.42462 9.35016C8.21388 9.65409 7.79668 9.72962 7.49275 9.51889C6.87094 9.08774 6.13858 8.84151 5.35539 8.84151Z" fill="#0C098C"/>
</g>
<defs>
<clipPath id="clip0_24_4063">
<rect width="15" height="15" fill="white"/>
</clipPath>
</defs>
</svg>
