<svg width="20" height="20" viewBox="0 0 20 20" fill="none" xmlns="http://www.w3.org/2000/svg">
<g clip-path="url(#clip0_876_1093)">
<path d="M10 19.1071C15.0297 19.1071 19.1071 15.0297 19.1071 10C19.1071 4.97026 15.0297 0.892857 10 0.892857C4.97026 0.892857 0.892857 4.97026 0.892857 10C0.892857 15.0297 4.97026 19.1071 10 19.1071Z" fill="#FDDC5C"/>
<path fill-rule="evenodd" clip-rule="evenodd" d="M10 1.78571C5.46337 1.78571 1.78571 5.46337 1.78571 10C1.78571 14.5366 5.46337 18.2143 10 18.2143C14.5366 18.2143 18.2143 14.5366 18.2143 10C18.2143 5.46337 14.5366 1.78571 10 1.78571ZM0 10C0 4.47716 4.47716 0 10 0C15.5229 0 20 4.47716 20 10C20 15.5229 15.5229 20 10 20C4.47716 20 0 15.5229 0 10ZM10 4.64286C10.5917 4.64286 11.0714 5.12256 11.0714 5.71429V8.92857H14.2857C14.8774 8.92857 15.3571 9.40827 15.3571 10C15.3571 10.5917 14.8774 11.0714 14.2857 11.0714H11.0714V14.2857C11.0714 14.8774 10.5917 15.3571 10 15.3571C9.40827 15.3571 8.92857 14.8774 8.92857 14.2857V11.0714H5.71429C5.12256 11.0714 4.64286 10.5917 4.64286 10C4.64286 9.40827 5.12256 8.92857 5.71429 8.92857H8.92857V5.71429C8.92857 5.12256 9.40827 4.64286 10 4.64286Z" fill="#0C098C"/>
</g>
<defs>
<clipPath id="clip0_876_1093">
<rect width="20" height="20" fill="white"/>
</clipPath>
</defs>
</svg>
