<svg width="25" height="25" viewBox="0 0 25 25" fill="none" xmlns="http://www.w3.org/2000/svg">
<g clip-path="url(#clip0_640_3271)">
<path d="M1.11586 20.2227C1.11586 21.3818 1.96865 22.3214 3.02061 22.3214H21.9789C23.0309 22.3214 23.8838 21.3818 23.8838 20.2227V16.3617C22.3404 15.9007 21.2052 14.3464 21.2052 12.5C21.2052 10.6536 22.3404 9.09932 23.8838 8.63832V4.7773C23.8838 3.61821 23.0309 2.67857 21.9789 2.67857H3.02061C1.96865 2.67857 1.11586 3.61821 1.11586 4.7773V8.62959C2.67436 9.07937 3.82418 10.6417 3.82418 12.5C3.82418 14.3583 2.67436 15.9206 1.11586 16.3704V20.2227Z" fill="#7AF1FF"/>
<path fill-rule="evenodd" clip-rule="evenodd" d="M2.23193 4.7773C2.23193 4.13029 2.68442 3.79464 3.02061 3.79464H14.7043V6.05468C14.7043 6.91762 15.4038 7.61718 16.2668 7.61718C17.1297 7.61718 17.8293 6.91762 17.8293 6.05468V3.79464H21.9789C22.3152 3.79464 22.7677 4.13029 22.7677 4.7773V7.89202C21.1464 8.73582 20.0891 10.5192 20.0891 12.5C20.0891 14.4808 21.1464 16.2642 22.7677 17.108V20.2227C22.7677 20.8696 22.3152 21.2054 21.9789 21.2054H17.8293V18.9454C17.8293 18.0823 17.1297 17.3828 16.2668 17.3828C15.4038 17.3828 14.7043 18.0823 14.7043 18.9454V21.2054H3.02061C2.68442 21.2054 2.23193 20.8696 2.23193 20.2227V17.1234C3.86988 16.2861 4.94025 14.4925 4.94025 12.5C4.94025 10.5075 3.86988 8.71391 2.23193 7.87659V4.7773ZM3.02061 23.4375C1.25288 23.4375 -0.000213623 21.8939 -0.000213623 20.2227V16.3704C-0.000213623 15.8732 0.328679 15.436 0.806379 15.2981C1.83906 15.0001 2.70811 13.913 2.70811 12.5C2.70811 11.087 1.83906 9.99993 0.806379 9.70189C0.328679 9.56402 -0.000213623 9.12679 -0.000213623 8.62959V4.7773C-0.000213623 3.10613 1.25288 1.5625 3.02061 1.5625H21.9789C23.7466 1.5625 24.9998 3.10613 24.9998 4.7773V8.63832C24.9998 9.13168 24.6759 9.5665 24.2032 9.70771C23.1791 10.0136 22.3213 11.0964 22.3213 12.5C22.3213 13.9036 23.1791 14.9864 24.2032 15.2923C24.6759 15.4335 24.9998 15.8683 24.9998 16.3617V20.2227C24.9998 21.8939 23.7466 23.4375 21.9789 23.4375H3.02061ZM17.8293 10.8119C17.8293 9.949 17.1297 9.24945 16.2668 9.24945C15.4038 9.24945 14.7043 9.949 14.7043 10.8119V14.1881C14.7043 15.051 15.4038 15.7506 16.2668 15.7506C17.1297 15.7506 17.8293 15.051 17.8293 14.1881V10.8119Z" fill="#0C098C"/>
</g>
<defs>
<clipPath id="clip0_640_3271">
<rect width="25" height="25" fill="white"/>
</clipPath>
</defs>
</svg>
