<svg width="25" height="25" viewBox="0 0 25 25" fill="none" xmlns="http://www.w3.org/2000/svg">
<g clip-path="url(#clip0_640_3266)">
<path fill-rule="evenodd" clip-rule="evenodd" d="M2.75868 9.91872H22.2421C23.1654 9.91872 23.5609 8.89961 22.8355 8.41509L13.0939 1.9495C12.914 1.84227 12.7091 1.78572 12.5004 1.78572C12.2918 1.78572 12.0869 1.84227 11.907 1.9495L2.16528 8.41509C1.44 8.89961 1.8356 9.91872 2.75868 9.91872ZM2.60989 18.9845H22.3902C22.8454 18.9845 23.2143 19.3632 23.2143 19.8305V22.3682C23.2143 22.8354 22.8454 23.2141 22.3902 23.2141H2.60989C2.15471 23.2141 1.78571 22.8354 1.78571 22.3682V19.8305C1.78571 19.3632 2.15471 18.9845 2.60989 18.9845Z" fill="#FDDC5C"/>
<path fill-rule="evenodd" clip-rule="evenodd" d="M3.5996 8.80265L12.4869 2.9042C12.4916 2.9025 12.4962 2.90179 12.5004 2.90179C12.5047 2.90179 12.5093 2.9025 12.514 2.9042L21.4012 8.80265H3.5996ZM12.5004 0.669647C12.0898 0.669647 11.6875 0.780985 11.3355 0.990899C11.32 1.0001 11.3048 1.00967 11.2899 1.01961L1.5481 7.4852L1.54532 7.48706C0.738698 8.0259 0.493172 8.96113 0.804772 9.75595C1.10461 10.5208 1.86205 11.0348 2.75868 11.0348H2.91878V17.8684H2.60989C1.51109 17.8684 0.66964 18.7745 0.66964 19.8305V22.3682C0.66964 23.4243 1.51109 24.3302 2.60989 24.3302H22.3902C23.4889 24.3302 24.3304 23.4243 24.3304 22.3682V19.8305C24.3304 18.7745 23.4889 17.8684 22.3902 17.8684H22.0812V11.0348H22.2421C23.1387 11.0348 23.8962 10.5208 24.1961 9.75595C24.5077 8.96113 24.2621 8.0259 23.4555 7.48706L23.4529 7.4852L13.711 1.01961C13.696 1.00967 13.6808 1.0001 13.6654 0.990899C13.3134 0.780985 12.9111 0.669647 12.5004 0.669647ZM18.9562 11.0348H16.7354V17.8684H18.9562V11.0348ZM13.6104 11.0348H11.3896V17.8684H13.6104V11.0348ZM8.26459 11.0348H6.04378V17.8684H8.26459V11.0348ZM2.90178 22.098V20.1005H22.0982V22.098H2.90178Z" fill="#0C098C"/>
</g>
<defs>
<clipPath id="clip0_640_3266">
<rect width="25" height="25" fill="white"/>
</clipPath>
</defs>
</svg>
