<svg width="32" height="19" viewBox="0 0 32 19" fill="none" xmlns="http://www.w3.org/2000/svg">
<path d="M10.3137 1.26149L20.9062 1.26149C25.8326 1.26149 29.8262 4.87612 29.8262 9.335C29.8262 13.7939 25.8326 17.4085 20.9062 17.4085L10.3137 17.4085C5.38738 17.4085 1.39367 13.7939 1.39367 9.335C1.39367 4.87612 5.38738 1.26149 10.3137 1.26149Z" fill="#7AF1FF"/>
<path fill-rule="evenodd" clip-rule="evenodd" d="M28.4325 9.335C28.4325 13.0972 25.0629 16.147 20.9062 16.147L10.3137 16.147C6.157 16.147 2.78747 13.0972 2.78747 9.335C2.78747 5.57282 6.157 2.52297 10.3137 2.52297H20.9062C25.0629 2.52297 28.4325 5.57282 28.4325 9.335ZM20.9062 18.67C26.6024 18.67 31.22 14.4906 31.22 9.335C31.22 4.17941 26.6024 -1.90735e-06 20.9062 -1.90735e-06H10.3137C4.61763 -1.90735e-06 -2.67029e-05 4.17941 -2.67029e-05 9.335C-2.67029e-05 14.4906 4.61763 18.67 10.3137 18.67H20.9062ZM20.9062 5.29824C18.443 5.29824 16.4462 7.10556 16.4462 9.335C16.4462 11.5644 18.443 13.3718 20.9062 13.3718C23.3694 13.3718 25.3662 11.5644 25.3662 9.335C25.3662 7.10556 23.3694 5.29824 20.9062 5.29824Z" fill="#0C098C"/>
</svg>
