<svg width="25" height="25" viewBox="0 0 25 25" fill="none" xmlns="http://www.w3.org/2000/svg">
<g clip-path="url(#clip0_640_3270)">
<path fill-rule="evenodd" clip-rule="evenodd" d="M10.065 7.49995C6.42773 4.92318 3.09321 3.93748 1.72963 5.30107C0.285262 6.74543 1.47682 10.4012 4.40312 14.2857C1.47684 18.1702 0.285323 21.8259 1.72969 23.2704C3.17405 24.7146 6.82977 23.5232 10.7143 20.5968C14.5988 23.5232 18.2545 24.7146 19.6989 23.2704C21.0698 21.8995 20.0661 18.5363 17.4583 14.8762C16.1973 14.5024 15.1822 13.4506 14.8648 11.9764C14.6509 10.9826 13.8798 10.2615 12.9633 10.0994C11.3689 9.81734 10.4028 8.74261 10.065 7.49995Z" fill="#79EE8D"/>
<path fill-rule="evenodd" clip-rule="evenodd" d="M19.957 1.15956C19.6084 -0.39415 17.4069 -0.383041 17.0722 1.17214L17.035 1.34491C16.6245 3.25138 15.1243 4.70352 13.2535 5.03447C11.6534 5.31756 11.6534 7.62888 13.2535 7.91195C15.1243 8.24291 16.6245 9.69506 17.035 11.6015L17.0722 11.7743C17.4069 13.3295 19.6084 13.3406 19.957 11.7869L20.002 11.5855C20.4281 9.68643 21.9299 8.24518 23.7974 7.91481C25.4007 7.63118 25.4007 5.31525 23.7974 5.03163C21.9299 4.70125 20.4281 3.26 20.002 1.36091L19.957 1.15956ZM9.81 5.97881C8.09978 4.87065 6.4211 4.08154 4.94776 3.74863C3.52451 3.42704 1.98041 3.47179 0.940303 4.51188C0.168369 5.28381 -0.0525398 6.34473 0.0100213 7.38554C0.0726863 8.42807 0.422124 9.58784 0.962576 10.7768C1.46822 11.8893 2.16371 13.0766 3.02062 14.2857C2.16371 15.4948 1.46822 16.6821 0.962576 17.7945C0.422126 18.9836 0.0726865 20.1432 0.0100213 21.1857C-0.0525398 22.2266 0.168369 23.2875 0.940301 24.0595C1.71223 24.8314 2.77316 25.0523 3.81396 24.9898C4.8565 24.9271 6.01626 24.5777 7.20526 24.0371C8.31767 23.5316 9.505 22.8361 10.7141 21.9791C11.9232 22.8361 13.1105 23.5316 14.223 24.0371C15.4119 24.5777 16.5717 24.9271 17.6143 24.9898C18.655 25.0523 19.7159 24.8314 20.4879 24.0595C21.5697 22.9777 21.5768 21.3529 21.2074 19.8671C20.8229 18.3213 19.9515 16.5557 18.7386 14.7636C18.3932 14.2531 17.6993 14.1193 17.1888 14.4648C16.6783 14.8103 16.5446 15.5042 16.8901 16.0146C18.0177 17.6808 18.7418 19.2025 19.0411 20.4059C19.3554 21.6696 19.1345 22.2563 18.9095 22.4811C18.7511 22.6396 18.4229 22.8021 17.7482 22.7616C17.0752 22.7213 16.1932 22.4809 15.1466 22.0052C14.3421 21.6395 13.4735 21.1498 12.5715 20.5479C13.3452 19.9036 14.1168 19.1998 14.8725 18.4441C15.2627 18.0539 15.6384 17.6602 15.9987 17.2646C16.4139 16.809 16.3811 16.1031 15.9255 15.688C15.4699 15.2728 14.764 15.3056 14.3488 15.7613C14.0118 16.1311 13.66 16.4999 13.2942 16.8657C12.4393 17.7206 11.5713 18.4961 10.7141 19.1832C9.85683 18.4961 8.98889 17.7206 8.13405 16.8657C7.27921 16.0109 6.50369 15.1429 5.81648 14.2857C6.50369 13.4284 7.27921 12.5604 8.13405 11.7056C8.59928 11.2404 9.0693 10.7978 9.54023 10.3795C10.0011 9.97016 10.0429 9.26475 9.63355 8.80389C9.22423 8.34302 8.51882 8.30125 8.05794 8.71057C7.55387 9.15827 7.05183 9.63109 6.55569 10.1272C5.79994 10.883 5.09621 11.6546 4.45182 12.4283C3.84991 11.5263 3.36033 10.6577 2.99464 9.85318C2.51891 8.80655 2.27858 7.92454 2.23814 7.25161C2.19758 6.57695 2.36021 6.2487 2.51867 6.09025C2.73364 5.87527 3.27948 5.66009 4.4558 5.92588C5.58207 6.18038 7.01266 6.82598 8.59617 7.85207C9.11346 8.18725 9.80453 8.03963 10.1397 7.52234C10.4749 7.00506 10.3273 6.31398 9.81 5.97881ZM4.45182 16.1431C3.84991 17.0451 3.36033 17.9136 2.99464 18.7182C2.51891 19.7648 2.27858 20.6468 2.23814 21.3196C2.19758 21.9945 2.36021 22.3227 2.51867 22.4811C2.67712 22.6395 3.00537 22.8021 3.68003 22.7616C4.35296 22.7213 5.23498 22.4809 6.2816 22.0052C7.0861 21.6395 7.95471 21.1498 8.85669 20.5479C8.08298 19.9036 7.31144 19.1998 6.55569 18.4441C5.79994 17.6883 5.09621 16.9168 4.45182 16.1431ZM8.482 14.2857C8.482 13.0529 9.48135 12.0536 10.7141 12.0536C11.9469 12.0536 12.9463 13.0529 12.9463 14.2857C12.9463 15.5185 11.9469 16.5179 10.7141 16.5179C9.48135 16.5179 8.482 15.5185 8.482 14.2857Z" fill="#0C098C"/>
</g>
<defs>
<clipPath id="clip0_640_3270">
<rect width="25" height="25" fill="white"/>
</clipPath>
</defs>
</svg>
