<svg width="50" height="50" viewBox="0 0 50 50" fill="none" xmlns="http://www.w3.org/2000/svg">
<path d="M25 47.6415C37.5045 47.6415 47.6415 38.3494 47.6415 26.8868C47.6415 23.6742 46.8453 20.6322 45.4238 17.9174L43.8679 2.35849L33.3828 7.60106C30.7902 6.65328 27.9615 6.13207 25 6.13207C22.0385 6.13207 19.2098 6.65328 16.6172 7.60106L6.13207 2.35849L4.57619 17.9174C3.15475 20.6322 2.35849 23.6742 2.35849 26.8868C2.35849 38.3494 12.4954 47.6415 25 47.6415Z" fill="#7AF1FF"/>
<path fill-rule="evenodd" clip-rule="evenodd" d="M7.18683 0.248991C6.49302 -0.0979144 5.67298 -0.0814729 4.99362 0.292965C4.31426 0.667399 3.86249 1.35195 3.78528 2.12381L2.27355 17.2412C0.815868 20.174 0 23.4427 0 26.8868C0 39.8408 11.3903 50 25 50C38.6098 50 50 39.8408 50 26.8868C50 23.4427 49.1842 20.174 47.7264 17.2412L46.2147 2.12381C46.1374 1.35195 45.6857 0.667399 45.0064 0.292965C44.3272 -0.0814729 43.5072 -0.0979144 42.8132 0.248991L33.2123 5.04943C30.6357 4.2217 27.8715 3.77358 25 3.77358C22.1285 3.77358 19.3643 4.2217 16.7877 5.04943L7.18683 0.248991ZM6.92298 18.152L8.13834 5.99849L15.5624 9.71053C16.1429 10.0008 16.8174 10.039 17.4269 9.81615C19.7615 8.96275 22.3162 8.49057 25 8.49057C27.6838 8.49057 30.2385 8.96275 32.5731 9.81615C33.1826 10.039 33.8571 10.0008 34.4376 9.71053L41.8615 5.99849L43.077 18.152C43.1072 18.4523 43.1943 18.744 43.3343 19.0114C44.586 21.4021 45.283 24.0703 45.283 26.8868C45.283 36.8577 36.3992 45.283 25 45.283C13.6006 45.283 4.71698 36.8577 4.71698 26.8868C4.71698 24.0703 5.41381 21.4021 6.66559 19.0114C6.80558 18.744 6.89294 18.4523 6.92298 18.152ZM14.6226 20.283C12.7991 20.283 11.3208 18.8047 11.3208 16.9811C11.3208 15.1575 12.7991 13.6792 14.6226 13.6792C16.4462 13.6792 17.9245 15.1575 17.9245 16.9811C17.9245 18.8047 16.4462 20.283 14.6226 20.283ZM36.3208 20.283C34.4972 20.283 33.0189 18.8047 33.0189 16.9811C33.0189 15.1575 34.4972 13.6792 36.3208 13.6792C38.1441 13.6792 39.6226 15.1575 39.6226 16.9811C39.6226 18.8047 38.1441 20.283 36.3208 20.283ZM25 40.0943C31.2523 40.0943 36.3208 35.8706 36.3208 30.6604C36.3208 25.4502 31.2523 21.2264 25 21.2264C18.7477 21.2264 13.6792 25.4502 13.6792 30.6604C13.6792 35.8706 18.7477 40.0943 25 40.0943ZM23.1132 29.2453C23.1132 27.9427 22.0573 26.8868 20.7547 26.8868C19.4522 26.8868 18.3962 27.9427 18.3962 29.2453V32.0755C18.3962 33.378 19.4522 34.434 20.7547 34.434C22.0573 34.434 23.1132 33.378 23.1132 32.0755V29.2453ZM29.2453 26.8868C30.5478 26.8868 31.6038 27.9427 31.6038 29.2453V32.0755C31.6038 33.378 30.5478 34.434 29.2453 34.434C27.9427 34.434 26.8868 33.378 26.8868 32.0755V29.2453C26.8868 27.9427 27.9427 26.8868 29.2453 26.8868Z" fill="#0C098C"/>
</svg>
