<svg width="50" height="48" viewBox="0 0 50 48" fill="none" xmlns="http://www.w3.org/2000/svg">
<path d="M39.6368 27.7419C41.1443 36.7864 34.1694 45.02 25 45.02C15.8306 45.02 8.85585 36.7864 10.3633 27.7419L14.3292 4.08899C16.0602 3.38885 17.9119 2.98077 19.8394 2.98077H30.1607C32.0881 2.98077 33.9398 3.38888 35.6708 4.08899L39.6368 27.7419Z" fill="#79EE8D"/>
<path fill-rule="evenodd" clip-rule="evenodd" d="M41.3939 34.9689C46.2029 34.6456 50.0036 30.6423 50.0036 25.7514V22.2481C50.0036 14.0218 44.4443 5.21317 36.5079 2.00318C36.4218 1.96836 36.3343 1.93921 36.2457 1.91563C34.3533 1.1832 32.3078 0.748215 30.1607 0.748215H19.8394C17.6922 0.748215 15.6468 1.1832 13.7542 1.91563C13.6658 1.9392 13.5783 1.96836 13.4923 2.00318C5.55565 5.21317 -0.003479 14.0218 -0.003479 22.2481V25.7514C-0.003479 30.6423 3.79715 34.6456 8.60619 34.9689C10.6579 41.9736 17.1255 47.2518 25 47.2518C32.8745 47.2518 39.3422 41.9736 41.3939 34.9689ZM37.435 28.109L33.6863 5.75106C32.5422 5.40242 31.3626 5.21249 30.1607 5.21249H19.8394C18.6374 5.21249 17.4578 5.40242 16.3138 5.75106L12.5651 28.1085L12.5649 28.1097C11.285 35.7932 17.2104 42.7875 25 42.7875C32.7897 42.7875 38.715 35.7927 37.435 28.109ZM20.2364 32.1096C20.5217 31.1686 21.3892 30.5251 22.3725 30.5251H27.6275C28.6108 30.5251 29.4783 31.1686 29.7636 32.1096C30.0489 33.0507 29.6848 34.0676 28.867 34.6136L26.2395 36.3679C25.4892 36.8689 24.5109 36.8689 23.7605 36.3679L21.133 34.6136C20.3153 34.0676 19.9511 33.0507 20.2364 32.1096ZM19.7442 17.3895C18.027 17.3895 16.6349 18.7816 16.6349 20.4988C16.6349 22.2161 18.027 23.6081 19.7442 23.6081C21.4615 23.6081 22.8536 22.2161 22.8536 20.4988C22.8536 18.7816 21.4615 17.3895 19.7442 17.3895ZM30.2541 17.3895C28.5368 17.3895 27.1448 18.7816 27.1448 20.4988C27.1448 22.2161 28.5368 23.6081 30.2541 23.6081C31.9713 23.6081 33.3634 22.2161 33.3634 20.4988C33.3634 18.7816 31.9713 17.3895 30.2541 17.3895Z" fill="#0C098C"/>
</svg>
