<svg width="24" height="24" viewBox="0 0 24 24" fill="none" xmlns="http://www.w3.org/2000/svg">
<path d="M22.5446 10.0446C22.5446 16.4554 18.0804 22.5446 11.8304 22.5446C5.58036 22.5446 1.11607 16.4554 1.11607 10.0446C1.11607 3.63393 5.41964 1.11607 11.8304 1.11607C18.2411 1.11607 22.5446 3.63393 22.5446 10.0446Z" fill="#79EE8D"/>
<path fill-rule="evenodd" clip-rule="evenodd" d="M2.23214 10.0446C2.23214 7.11309 3.19977 5.2423 4.74575 4.06398C6.34686 2.84363 8.74161 2.23214 11.8304 2.23214C14.9191 2.23214 17.3139 2.84363 18.915 4.06398C20.4609 5.2423 21.4286 7.11309 21.4286 10.0446C21.4286 16.0611 17.2632 21.4286 11.8304 21.4286C6.39757 21.4286 2.23214 16.0611 2.23214 10.0446ZM11.8304 0C8.50839 0 5.546 0.647439 3.39264 2.2887C1.18416 3.97198 0 6.56548 0 10.0446C0 16.8496 4.76314 23.6607 11.8304 23.6607C18.8975 23.6607 23.6607 16.8496 23.6607 10.0446C23.6607 6.56548 22.4766 3.97198 20.268 2.2887C18.1146 0.647439 15.1523 0 11.8304 0ZM4.7155 7.94446C5.50584 7.7743 6.32275 7.76864 7.11536 7.92782C7.90798 8.08698 8.65937 8.40761 9.32273 8.8697C9.36607 8.89987 9.4037 8.9375 9.43387 8.98084C9.89598 9.64421 10.2166 10.3956 10.3757 11.1882C10.5349 11.9808 10.5293 12.7977 10.3591 13.5881C10.3222 13.7596 10.1882 13.8936 10.0166 13.9305C9.2263 14.1007 8.40939 14.1064 7.61679 13.9472C6.82416 13.788 6.07278 13.4674 5.40941 13.0053C5.36607 12.9751 5.32845 12.9375 5.29827 12.8942C4.83618 12.2308 4.51555 11.4794 4.35639 10.6868C4.19721 9.89418 4.20287 9.07727 4.37304 8.28693C4.40996 8.11539 4.54396 7.98139 4.7155 7.94446ZM18.9454 7.94446C18.1552 7.7743 17.3382 7.76864 16.5456 7.92782C15.7529 8.08698 15.0016 8.40759 14.3382 8.8697C14.2949 8.89987 14.2572 8.9375 14.2271 8.98084C13.765 9.6442 13.4444 10.3956 13.2852 11.1882C13.126 11.9808 13.1317 12.7977 13.3018 13.5881C13.3387 13.7596 13.4727 13.8936 13.6443 13.9305C14.4346 14.1007 15.2515 14.1064 16.0442 13.9472C16.8368 13.788 17.5882 13.4674 18.2516 13.0053C18.2948 12.9751 18.3325 12.9375 18.3627 12.8942C18.8248 12.2308 19.1454 11.4794 19.3045 10.6868C19.4637 9.89418 19.458 9.07727 19.2879 8.28693C19.2509 8.11539 19.117 7.98139 18.9454 7.94446Z" fill="#0C098C"/>
</svg>
