<svg width="25" height="25" viewBox="0 0 25 25" fill="none" xmlns="http://www.w3.org/2000/svg">
<path d="M7.39796 5.68182C10.4592 5.68182 10.4592 6.59091 12.5 6.59091C14.5408 6.59091 14.5408 5.68182 17.602 5.68182C21.6837 5.68182 23.7245 10.2273 23.7245 13.8636C23.7245 17.5 20.6633 23.8636 16.5816 23.8636C14.5408 23.8636 14.5408 22.9545 12.5 22.9545C10.4592 22.9545 10.4592 23.8636 8.41837 23.8636C4.33674 23.8636 1.27551 17.5 1.27551 13.8636C1.27551 10.2273 3.31633 5.68182 7.39796 5.68182Z" fill="#79EE8D"/>
<path d="M7.39798 5.68182C10.4592 5.68182 10.4592 6.59091 12.5 6.59091C14.5408 6.59091 14.5408 5.68182 17.6021 5.68182C21.6837 5.68182 23.7245 10.2273 23.7245 13.8636C23.7245 17.5 20.6633 23.8636 16.5816 23.8636C14.5408 23.8636 14.5408 22.9545 12.5 22.9545C10.4592 22.9545 10.4592 23.8636 8.41839 23.8636C4.33675 23.8636 1.27553 17.5 1.27553 13.8636C1.27553 10.2273 3.31634 5.68182 7.39798 5.68182Z" fill="#79EE8D"/>
<path d="M7.39798 5.68182C10.4592 5.68182 10.4592 6.59091 12.5 6.59091C14.5408 6.59091 14.5408 5.68182 17.6021 5.68182C21.6837 5.68182 23.7245 10.2273 23.7245 13.8636C23.7245 17.5 20.6633 23.8636 16.5816 23.8636C14.5408 23.8636 14.5408 22.9545 12.5 22.9545C10.4592 22.9545 10.4592 23.8636 8.41839 23.8636C4.33675 23.8636 1.27553 17.5 1.27553 13.8636C1.27553 10.2273 3.31634 5.68182 7.39798 5.68182Z" fill="#79EE8D"/>
<path fill-rule="evenodd" clip-rule="evenodd" d="M14.2946 5.04607C14.3975 4.00127 15.3822 3.18182 16.5816 3.18182C17.5679 3.18182 18.3673 2.46955 18.3673 1.59091C18.3673 0.712275 17.5679 0 16.5816 0C13.4077 0 10.8223 2.24529 10.7176 5.05031C9.96853 4.78893 9.0488 4.54545 7.39796 4.54545C4.73561 4.54545 2.85116 6.04845 1.69867 7.84529C0.549939 9.63627 0 11.8832 0 13.8636C0 15.907 0.839531 18.5953 2.20133 20.7791C2.88743 21.8795 3.74149 22.9096 4.75322 23.6776C5.76802 24.4476 7.0071 25 8.41837 25C9.72778 25 10.4472 24.6849 11.0296 24.4255L11.0507 24.4162C11.4774 24.226 11.7804 24.0909 12.5 24.0909C13.2196 24.0909 13.5226 24.226 13.9493 24.4162L13.9704 24.4255C14.5528 24.6849 15.2722 25 16.5816 25C17.9929 25 19.232 24.4476 20.2467 23.6776C21.2586 22.9096 22.1127 21.8795 22.7986 20.7791C24.1604 18.5953 25 15.907 25 13.8636C25 11.8832 24.45 9.63627 23.3014 7.84529C22.1488 6.04845 20.2643 4.54545 17.602 4.54545C15.9601 4.54545 15.0414 4.78629 14.2946 5.04607ZM2.55102 13.8636C2.55102 12.2077 3.02149 10.3637 3.91357 8.97289C4.8019 7.58791 5.97867 6.81818 7.39796 6.81818C8.74331 6.81818 9.3479 7.00969 9.85792 7.19145C9.91759 7.21271 9.97833 7.23491 10.0406 7.25764C10.6192 7.46902 11.3261 7.72727 12.5 7.72727C13.6739 7.72727 14.3807 7.46906 14.9593 7.25767C15.0216 7.23493 15.0824 7.21273 15.1421 7.19145C15.6521 7.00969 16.2567 6.81818 17.602 6.81818C19.0214 6.81818 20.1982 7.58791 21.0863 8.97289C21.9786 10.3637 22.449 12.2077 22.449 13.8636C22.449 15.4567 21.758 17.7683 20.5688 19.6755C19.9792 20.6205 19.3027 21.4085 18.5925 21.9475C17.8854 22.4842 17.2112 22.7273 16.5816 22.7273C15.862 22.7273 15.5591 22.5922 15.1323 22.402L15.1112 22.3927C14.5288 22.1333 13.8094 21.8182 12.5 21.8182C11.1906 21.8182 10.4712 22.1333 9.88875 22.3927L9.86771 22.402C9.44094 22.5922 9.138 22.7273 8.41837 22.7273C7.78882 22.7273 7.11463 22.4842 6.40749 21.9475C5.69729 21.4085 5.02073 20.6205 4.43133 19.6755C3.2421 17.7683 2.55102 15.4567 2.55102 13.8636Z" fill="#0C098C"/>
</svg>
