<svg width="25" height="25" viewBox="0 0 25 25" fill="none" xmlns="http://www.w3.org/2000/svg">
<path fill-rule="evenodd" clip-rule="evenodd" d="M23.2143 6.73088V2.61758C23.2136 2.48958 23.1839 2.36345 23.1277 2.2489C23.0714 2.13434 22.99 2.03443 22.8896 1.95684C22.7893 1.87927 22.6729 1.82609 22.5491 1.80141C22.4254 1.77673 22.2977 1.78121 22.1759 1.81449L8.98903 5.52879C8.81476 5.57641 8.66073 5.68077 8.55055 5.82586C8.44037 5.97093 8.38016 6.1487 8.37914 6.33188V10.8518L23.2143 6.73088ZM5.30771 22.7636C7.00401 22.7636 8.37914 21.3884 8.37914 19.6921C8.37914 17.9959 7.00401 16.6208 5.30771 16.6208C3.61141 16.6208 2.23628 17.9959 2.23628 19.6921C2.23628 21.3884 3.61141 22.7636 5.30771 22.7636ZM23.2143 15.5117C23.2143 17.208 21.8391 18.5832 20.1429 18.5832C18.4466 18.5832 17.0714 17.208 17.0714 15.5117C17.0714 13.8154 18.4466 12.4403 20.1429 12.4403C21.8391 12.4403 23.2143 13.8154 23.2143 15.5117Z" fill="#79EE8D"/>
<path fill-rule="evenodd" clip-rule="evenodd" d="M21.8816 0.737909C22.1704 0.658965 22.4736 0.648313 22.7673 0.706899C23.0611 0.765479 23.3364 0.891474 23.5723 1.07398C23.8084 1.25644 23.9984 1.49031 24.1293 1.75668C24.2602 2.02299 24.3287 2.31536 24.3304 2.61141V6.70699C24.3307 6.72336 24.3307 6.7397 24.3304 6.75599V15.5209C24.3254 17.8294 22.4525 19.6993 20.1429 19.6993C17.8302 19.6993 15.9554 17.8244 15.9554 15.5117C15.9554 13.199 17.8302 11.3242 20.1429 11.3242C20.8491 11.3242 21.5146 11.4991 22.0982 11.8078V8.19922L9.49521 11.7001V19.6979C9.49212 22.008 7.6185 23.8796 5.30771 23.8796C2.99501 23.8796 1.12021 22.0048 1.12021 19.6921C1.12021 17.3795 2.99501 15.5047 5.30771 15.5047C6.01398 15.5047 6.67941 15.6795 7.26307 15.9883V10.8762C7.26269 10.8594 7.26269 10.8427 7.26307 10.8261V6.32572C7.26541 5.90231 7.40453 5.48954 7.66173 5.15086C7.91809 4.81329 8.27844 4.5672 8.68975 4.45359L21.8732 0.740222L21.8816 0.737909ZM9.49521 9.3834L22.0982 5.88256V2.99584L9.49521 6.54572V9.3834ZM18.1875 15.5117C18.1875 14.4318 19.0629 13.5563 20.1429 13.5563C21.2227 13.5563 22.0982 14.4318 22.0982 15.5117C22.0982 16.5916 21.2227 17.4671 20.1429 17.4671C19.0629 17.4671 18.1875 16.5916 18.1875 15.5117ZM3.35235 19.6921C3.35235 18.6123 4.2278 17.7368 5.30771 17.7368C6.38762 17.7368 7.26307 18.6123 7.26307 19.6921C7.26307 20.7721 6.38762 21.6475 5.30771 21.6475C4.2278 21.6475 3.35235 20.7721 3.35235 19.6921Z" fill="#0C098C"/>
</svg>
