<svg width="25" height="25" viewBox="0 0 25 25" fill="none" xmlns="http://www.w3.org/2000/svg">
<g clip-path="url(#clip0_640_3272)">
<path d="M17.6339 6.47321V20.3125C17.6339 21.2596 17.2577 22.168 16.5879 22.8379C15.9181 23.5077 15.0097 23.8839 14.0625 23.8839H1.11607C2.06327 23.8839 2.97168 23.5077 3.64145 22.8379C4.31123 22.168 4.6875 21.2596 4.6875 20.3125V4.6875C4.6875 3.7403 5.06377 2.83189 5.73355 2.16213C6.40332 1.49235 7.31173 1.11607 8.25893 1.11607H20.7589" fill="#FDDC5C"/>
<path fill-rule="evenodd" clip-rule="evenodd" d="M8.25893 2.23214C7.60773 2.23214 6.9832 2.49084 6.52273 2.9513C6.06227 3.41177 5.80357 4.0363 5.80357 4.6875V20.3125C5.80357 21.1864 5.55948 22.0354 5.10907 22.7679H14.0625C14.7137 22.7679 15.3382 22.5091 15.7987 22.0487C16.2592 21.5882 16.5179 20.9638 16.5179 20.3125V4.24107C16.5179 3.5335 16.6947 2.84418 17.0238 2.23214H8.25893ZM18.75 20.3125V7.58929H22.9911C23.5239 7.58929 24.0348 7.37763 24.4116 7.00089C24.7884 6.62414 25 6.11316 25 5.58036V4.24107C25 3.11627 24.5532 2.03754 23.7579 1.24218C22.9625 0.446825 21.8837 0 20.7589 0H8.25893C7.01573 0 5.82345 0.493861 4.94436 1.37294C4.06529 2.25202 3.57143 3.4443 3.57143 4.6875V20.3125C3.57143 20.9638 3.31273 21.5882 2.85227 22.0487C2.3918 22.5091 1.76727 22.7679 1.11607 22.7679C0.499682 22.7679 0 23.2675 0 23.8839C0 24.5004 0.499682 25 1.11607 25H14.0625C15.3057 25 16.498 24.5061 17.3771 23.6271C18.2561 22.748 18.75 21.5557 18.75 20.3125ZM10.7143 6.02679C10.0979 6.02679 9.59821 6.52646 9.59821 7.14286C9.59821 7.75925 10.0979 8.25893 10.7143 8.25893H13.3929C14.0092 8.25893 14.5089 7.75925 14.5089 7.14286C14.5089 6.52646 14.0092 6.02679 13.3929 6.02679H10.7143ZM7.8125 12.5C7.8125 11.8836 8.31218 11.3839 8.92857 11.3839H13.3929C14.0092 11.3839 14.5089 11.8836 14.5089 12.5C14.5089 13.1164 14.0092 13.6161 13.3929 13.6161H8.92857C8.31218 13.6161 7.8125 13.1164 7.8125 12.5ZM8.92857 16.7411C8.31218 16.7411 7.8125 17.2408 7.8125 17.8571C7.8125 18.4736 8.31218 18.9732 8.92857 18.9732H13.3929C14.0092 18.9732 14.5089 18.4736 14.5089 17.8571C14.5089 17.2408 14.0092 16.7411 13.3929 16.7411H8.92857Z" fill="#0C098C"/>
</g>
<defs>
<clipPath id="clip0_640_3272">
<rect width="25" height="25" fill="white"/>
</clipPath>
</defs>
</svg>
