<svg width="25" height="25" viewBox="0 0 25 25" fill="none" xmlns="http://www.w3.org/2000/svg">
<g clip-path="url(#clip0_113_1378)">
<path d="M12.5003 23.8838C6.21345 23.8838 1.11693 18.7872 1.11693 12.5003C1.11693 6.21348 6.21345 1.11696 12.5003 1.11696C18.7871 1.11696 23.8837 6.21348 23.8837 12.5003C23.8837 18.7872 18.7871 23.8838 12.5003 23.8838Z" fill="#FDDC5C"/>
<path fill-rule="evenodd" clip-rule="evenodd" d="M12.5003 0.00088501C5.59705 0.00088501 0.000854492 5.59708 0.000854492 12.5003C0.000854492 19.4036 5.59705 24.9998 12.5003 24.9998C19.4036 24.9998 24.9998 19.4036 24.9998 12.5003C24.9998 5.59708 19.4036 0.00088501 12.5003 0.00088501ZM2.233 12.5003C2.233 6.82985 6.82982 2.23303 12.5003 2.23303C18.1707 2.23303 22.7677 6.82985 22.7677 12.5003C22.7677 18.1709 18.1707 22.7677 12.5003 22.7677C6.82982 22.7677 2.233 18.1709 2.233 12.5003ZM14.0625 6.25001C14.0625 5.38707 13.3629 4.68751 12.5 4.68751C11.637 4.68751 10.9375 5.38707 10.9375 6.25001V12.5C10.9375 13.363 11.637 14.0625 12.5 14.0625H16.9643C17.8272 14.0625 18.5268 13.363 18.5268 12.5C18.5268 11.6371 17.8272 10.9375 16.9643 10.9375H14.0625V6.25001Z" fill="#0C098C"/>
</g>
<defs>
<clipPath id="clip0_113_1378">
<rect width="25" height="25" fill="white"/>
</clipPath>
</defs>
</svg>
