<svg width="25" height="25" viewBox="0 0 25 25" fill="none" xmlns="http://www.w3.org/2000/svg">
<g clip-path="url(#clip0_640_3265)">
<path d="M12.5893 23.4304L7.37359 23.8823L7.82563 18.6668L18.6743 7.88764C18.8361 7.72205 19.0295 7.59046 19.243 7.50064C19.4564 7.41082 19.6857 7.36455 19.9173 7.36455C20.1489 7.36455 20.3782 7.41082 20.5916 7.50064C20.8052 7.59046 20.9984 7.72205 21.1604 7.88764L23.3684 10.113C23.5313 10.2746 23.6607 10.4669 23.7489 10.6788C23.8371 10.8906 23.8827 11.1179 23.8827 11.3474C23.8827 11.5769 23.8371 11.8041 23.7489 12.016C23.6607 12.2278 23.5313 12.4201 23.3684 12.5817L12.5893 23.4304Z" fill="#79EE8D"/>
<path fill-rule="evenodd" clip-rule="evenodd" d="M5.01873 1.17214C5.35352 -0.383041 7.55498 -0.39415 7.90348 1.15956L7.94864 1.36091C8.37461 3.26 9.87648 4.70125 11.7439 5.03163C13.3473 5.31525 13.3473 7.63118 11.7439 7.91481C9.87648 8.24518 8.37461 9.68643 7.94864 11.5855L7.90348 11.7869C7.55498 13.3406 5.35352 13.3295 5.01873 11.7743L4.98154 11.6015C4.57113 9.69506 3.07091 8.24291 1.20011 7.91195C-0.400032 7.62888 -0.400044 5.31756 1.20011 5.03447C3.07091 4.70352 4.57113 3.25138 4.98154 1.34492L5.01873 1.17214ZM19.6759 8.52934C19.7523 8.49718 19.8345 8.48063 19.9173 8.48063C20.0002 8.48063 20.0823 8.49718 20.1588 8.52934C20.2352 8.56152 20.3045 8.60863 20.3623 8.66791L20.368 8.67372L22.5761 10.8991L22.5825 10.9054C22.6407 10.9633 22.6871 11.0321 22.7188 11.108C22.7504 11.1838 22.7666 11.2652 22.7666 11.3474C22.7666 11.4296 22.7504 11.5109 22.7188 11.5868C22.6871 11.6626 22.6407 11.7315 22.5825 11.7893L22.5766 11.7951L12.0857 22.3538L8.60014 22.6559L8.90223 19.1704L19.4609 8.67936L19.4723 8.66791C19.5302 8.60863 19.5995 8.56152 19.6759 8.52934ZM19.9173 6.24848C19.537 6.24848 19.1605 6.32445 18.8102 6.47195C18.4623 6.61827 18.1471 6.83204 17.8827 7.10088L7.03898 17.875C6.85175 18.0611 6.7365 18.3073 6.71372 18.5704L6.2617 23.7861C6.23323 24.1145 6.35136 24.4386 6.58441 24.6716C6.81746 24.9046 7.14161 25.0227 7.46996 24.9943L12.6856 24.5423C12.9486 24.5195 13.195 24.4043 13.381 24.217L24.1575 13.371C24.4236 13.1063 24.6348 12.7917 24.7791 12.4452C24.9241 12.0973 24.9988 11.7242 24.9988 11.3474C24.9988 10.9705 24.9241 10.5974 24.7791 10.2496C24.6348 9.90325 24.4238 9.58881 24.1579 9.32418L21.9554 7.10422C21.69 6.83381 21.3738 6.61888 21.0245 6.47195C20.6741 6.32445 20.2975 6.24848 19.9173 6.24848Z" fill="#0C098C"/>
</g>
<defs>
<clipPath id="clip0_640_3265">
<rect width="25" height="25" fill="white"/>
</clipPath>
</defs>
</svg>
