<svg width="25" height="25" viewBox="0 0 25 25" fill="none" xmlns="http://www.w3.org/2000/svg">
<g clip-path="url(#clip0_640_3263)">
<path d="M12.5 23.8875C18.7882 23.8875 23.8857 18.79 23.8857 12.5018C23.8857 6.21362 18.7882 1.11607 12.5 1.11607C6.21188 1.11607 1.11433 6.21362 1.11433 12.5018C1.11433 18.79 6.21188 23.8875 12.5 23.8875Z" fill="#7AF1FF"/>
<path fill-rule="evenodd" clip-rule="evenodd" d="M5.6319 4.86661C7.19152 3.46275 9.18354 2.52991 11.3839 2.29209V22.7114C9.18274 22.4736 7.19006 21.5402 5.63018 20.1354C7.83856 18.2421 9.14918 15.4257 9.14918 12.5001C9.14918 9.57288 7.83697 6.75934 5.6319 4.86661ZM19.3698 20.1354C17.81 21.5402 15.8173 22.4736 13.6161 22.7114V2.29209C15.8165 2.52988 17.8085 3.46271 19.3682 4.86657C17.1631 6.75932 15.8508 9.57286 15.8508 12.5001C15.8508 15.4257 17.1615 18.2423 19.3698 20.1354ZM20.8579 18.4707C22.0614 16.7886 22.7696 14.7279 22.7696 12.5018C22.7696 10.2748 22.0609 8.21343 20.8564 6.53091C19.122 8.00204 18.083 10.2122 18.083 12.5001C18.083 14.7869 19.1207 16.9997 20.8579 18.4707ZM6.91704 12.5001C6.91704 14.7869 5.87925 16.9997 4.1422 18.4707C2.93868 16.7886 2.2304 14.7279 2.2304 12.5018C2.2304 10.2748 2.93922 8.21346 4.14356 6.53095C5.87802 8.00207 6.91704 10.2122 6.91704 12.5001ZM-0.0017395 12.5018C-0.0017395 5.59723 5.5955 0 12.5 0C19.4046 0 25.0018 5.59723 25.0018 12.5018C25.0018 19.4062 19.4046 25.0036 12.5 25.0036C5.5955 25.0036 -0.0017395 19.4062 -0.0017395 12.5018Z" fill="#0C098C"/>
</g>
<defs>
<clipPath id="clip0_640_3263">
<rect width="25" height="25" fill="white"/>
</clipPath>
</defs>
</svg>
