<svg width="15" height="15" viewBox="0 0 15 15" fill="none" xmlns="http://www.w3.org/2000/svg">
<g clip-path="url(#clip0_24_4075)">
<path d="M12.4894 0.669643H2.51059C2.08558 0.669643 1.74105 1.01418 1.74105 1.43918V6.51437C1.74105 6.93937 2.08558 7.2839 2.51059 7.2839H12.4894C12.9143 7.2839 13.2589 6.93937 13.2589 6.51437V1.43918C13.2589 1.01418 12.9143 0.669643 12.4894 0.669643Z" fill="#FF7972"/>
<path fill-rule="evenodd" clip-rule="evenodd" d="M2.51059 1.33929C2.45542 1.33929 2.4107 1.38401 2.4107 1.43918V6.51437C2.4107 6.56954 2.45542 6.61426 2.51059 6.61426H4.77643C5.29863 5.7831 6.19128 5.20715 7.2238 5.1193C6.39349 4.98695 5.75891 4.26759 5.75891 3.40001C5.75891 2.43844 6.53842 1.65894 7.49998 1.65894C8.46155 1.65894 9.24105 2.43844 9.24105 3.40001C9.24105 4.2676 8.60648 4.98696 7.77615 5.1193C8.80868 5.20716 9.70132 5.7831 10.2235 6.61426H12.4894C12.5446 6.61426 12.5893 6.56954 12.5893 6.51437V1.43918C12.5893 1.38401 12.5446 1.33929 12.4894 1.33929H2.51059ZM1.07141 1.43918C1.07141 0.644342 1.71576 0 2.51059 0H12.4894C13.2842 0 13.9286 0.644342 13.9286 1.43918V6.51437C13.9286 7.30921 13.2842 7.95355 12.4894 7.95355H2.51059C1.71576 7.95355 1.07141 7.30921 1.07141 6.51437V1.43918ZM1.11623 14.2501C1.61173 13.116 2.74392 12.3216 4.06282 12.3216C5.38172 12.3216 6.5139 13.116 7.00941 14.2501C7.08178 14.4156 7.06574 14.6067 6.96678 14.7579C6.86781 14.9091 6.69925 15.0002 6.51851 15.0002H1.60713C1.42639 15.0002 1.25783 14.9091 1.15886 14.7579C1.05989 14.6067 1.04386 14.4156 1.11623 14.2501ZM10.9371 12.3216C9.61823 12.3216 8.48604 13.116 7.99053 14.2501C7.91816 14.4156 7.93419 14.6067 8.03316 14.7579C8.13213 14.9091 8.30068 15.0002 8.48143 15.0002H13.3928C13.5736 15.0002 13.7421 14.9091 13.8411 14.7579C13.94 14.6067 13.9561 14.4156 13.8838 14.2501C13.3882 13.116 12.2561 12.3216 10.9371 12.3216ZM2.18783 10.4467C2.18783 9.41116 3.0273 8.57169 4.06283 8.57169C5.09837 8.57169 5.93783 9.41116 5.93783 10.4467C5.93783 11.4822 5.09835 12.3216 4.06282 12.3216C3.02729 12.3216 2.18783 11.4822 2.18783 10.4467ZM10.9371 8.57169C9.9016 8.57169 9.06214 9.41116 9.06214 10.4467C9.06214 11.4822 9.9016 12.3216 10.9371 12.3216C11.9727 12.3216 12.8121 11.4822 12.8121 10.4467C12.8121 9.41116 11.9727 8.57169 10.9371 8.57169Z" fill="#0C098C"/>
</g>
<defs>
<clipPath id="clip0_24_4075">
<rect width="15" height="15" fill="white"/>
</clipPath>
</defs>
</svg>
